<svg width="32" height="32" viewBox="0 0 32 32" fill="none" xmlns="http://www.w3.org/2000/svg">
  <!-- خلفية دائرية مع تدرج -->
  <circle cx="16" cy="16" r="15" fill="url(#bgGradient)" stroke="url(#borderGradient)" stroke-width="1"/>

  <!-- شكل الـ A للـ Apex مع تأثير ثلاثي الأبعاد -->
  <path d="M16 7L21 19H19.2L18 16.5H14L12.8 19H11L16 7Z" fill="white" opacity="0.95"/>
  <path d="M14.8 14.5H17.2L16 12L14.8 14.5Z" fill="url(#bgGradient)"/>

  <!-- خطوط التدفق المتحركة -->
  <path d="M8 24C11 22.5 13 22.5 16 23C19 23.5 21 22.5 24 24" stroke="white" stroke-width="1.5" stroke-linecap="round" opacity="0.8"/>
  <path d="M9 26C12 24.8 14 24.8 16 25.2C18 25.6 20 24.8 23 26" stroke="white" stroke-width="1" stroke-linecap="round" opacity="0.6"/>

  <!-- نقاط تدفق صغيرة -->
  <circle cx="10" cy="25" r="1" fill="white" opacity="0.7"/>
  <circle cx="16" cy="24" r="1" fill="white" opacity="0.9"/>
  <circle cx="22" cy="25" r="1" fill="white" opacity="0.7"/>

  <!-- تدرجات لونية -->
  <defs>
    <linearGradient id="bgGradient" x1="0%" y1="0%" x2="100%" y2="100%">
      <stop offset="0%" style="stop-color:#ff6f00;stop-opacity:1" />
      <stop offset="50%" style="stop-color:#ff8f00;stop-opacity:1" />
      <stop offset="100%" style="stop-color:#ffaf00;stop-opacity:1" />
    </linearGradient>
    <linearGradient id="borderGradient" x1="0%" y1="0%" x2="100%" y2="100%">
      <stop offset="0%" style="stop-color:#ff6f00;stop-opacity:0.8" />
      <stop offset="100%" style="stop-color:#ffaf00;stop-opacity:0.8" />
    </linearGradient>
  </defs>
</svg>
